<svg width="22" height="23" viewBox="0 0 22 23" fill="none" xmlns="http://www.w3.org/2000/svg">
<path d="M2.06164 14.1933L2.42688 12.1219C2.85856 9.67364 3.0744 8.44952 3.92914 7.72476C4.78389 7 6.01171 7 8.46734 7H13.5327C15.9883 7 17.2161 7 18.0709 7.72476C18.9256 8.44952 19.1414 9.67364 19.5731 12.1219L19.9384 14.1933C20.5357 17.5811 20.8344 19.275 19.9147 20.3875C18.995 21.5 17.2959 21.5 13.8979 21.5H8.1021C4.70406 21.5 3.00504 21.5 2.08533 20.3875C1.16562 19.275 1.4643 17.5811 2.06164 14.1933Z" stroke="currentColor" stroke-width="1.5"/>
<path d="M6.5 7L6.66782 4.98618C6.85558 2.73306 8.73907 1 11 1C13.2609 1 15.1444 2.73306 15.3322 4.98618L15.5 7" stroke="currentColor" stroke-width="1.5"/>
<path d="M14 10C13.87 11.4131 12.5657 12.5 11 12.5C9.43433 12.5 8.13002 11.4131 8 10" stroke="currentColor" stroke-width="1.5" stroke-linecap="round"/>
</svg>
