<svg width="25" height="24" viewBox="0 0 25 24" fill="none" xmlns="http://www.w3.org/2000/svg">
<circle cx="12.87" cy="12" r="12" fill="#FF0004"/>
<path fill-rule="evenodd" clip-rule="evenodd" d="M18.0079 7.80458C18.2683 7.54423 18.2683 7.12212 18.0079 6.86177C17.7476 6.60142 17.3255 6.60142 17.0651 6.86177L12.8698 11.057L8.67475 6.86194C8.4144 6.60159 7.99229 6.60159 7.73194 6.86194C7.4716 7.12229 7.4716 7.5444 7.73195 7.80475L11.927 11.9998L7.73194 16.1949C7.47159 16.4553 7.47159 16.8774 7.73194 17.1377C7.99229 17.3981 8.4144 17.3981 8.67475 17.1377L12.8698 12.9426L17.0651 17.1379C17.3255 17.3983 17.7476 17.3983 18.0079 17.1379C18.2683 16.8776 18.2683 16.4554 18.0079 16.1951L13.8127 11.9998L18.0079 7.80458Z" fill="white"/>
</svg>
