<svg width="17" height="16" viewBox="0 0 17 16" fill="currentColor" xmlns="http://www.w3.org/2000/svg">
<path fill-rule="evenodd" clip-rule="evenodd" d="M14.0079 3.80409C14.2683 3.54374 14.2683 3.12163 14.0079 2.86128C13.7476 2.60093 13.3255 2.60093 13.0651 2.86128L8.86984 7.05654L4.67475 2.86145C4.4144 2.6011 3.99229 2.6011 3.73194 2.86145C3.4716 3.1218 3.4716 3.54391 3.73195 3.80426L7.92703 7.99935L3.73194 12.1944C3.47159 12.4548 3.47159 12.8769 3.73194 13.1372C3.99229 13.3976 4.4144 13.3976 4.67475 13.1372L8.86984 8.94216L13.0651 13.1374C13.3255 13.3978 13.7476 13.3978 14.0079 13.1374C14.2683 12.8771 14.2683 12.455 14.0079 12.1946L9.81265 7.99935L14.0079 3.80409Z" fill="currentColor"/>
</svg>
