<svg width="41" height="41" viewBox="0 0 41 41" fill="none" xmlns="http://www.w3.org/2000/svg">
<path d="M40.5858 20.2929C40.5858 31.5003 31.5003 40.5858 20.2929 40.5858C9.08543 40.5858 0 31.5003 0 20.2929C0 9.08543 9.08543 0 20.2929 0C31.5003 0 40.5858 9.08543 40.5858 20.2929Z" fill="white"/>
<path d="M22.8749 11.6793C21.7554 10.5598 21.1956 10 20.5 10C19.8044 10 19.2446 10.5598 18.1251 11.6793C17.4532 12.3512 16.7875 12.6631 15.8297 12.6631C14.9934 12.6631 13.8035 12.5009 13.15 13.1599C12.5016 13.8137 12.6631 14.9987 12.6631 15.8297C12.6631 16.7875 12.3512 17.4532 11.6793 18.1251C10.5598 19.2446 10 19.8044 10 20.5C10 21.1956 10.5598 21.7554 11.6793 22.8749C12.432 23.6275 12.6631 24.1135 12.6631 25.1703C12.6631 26.0066 12.5009 27.1965 13.16 27.85C13.8138 28.4984 14.9987 28.3369 15.8297 28.3369C16.8497 28.3369 17.3408 28.5364 18.0688 29.2644C18.6887 29.8842 19.5196 31 20.5 31C21.4804 31 22.3113 29.8842 22.9312 29.2644C23.6592 28.5364 24.1503 28.3369 25.1703 28.3369C26.0013 28.3369 27.1862 28.4984 27.84 27.85M29.3207 18.1251C30.4402 19.2446 31 19.8044 31 20.5C31 21.1956 30.4402 21.7554 29.3207 22.8749C28.568 23.6275 28.3369 24.1135 28.3369 25.1703C28.3369 26.0066 28.4991 27.1965 27.84 27.85M27.84 27.85H27.85" stroke="#A0A0A0" stroke-width="1.5" stroke-linecap="round" stroke-linejoin="round"/>
<path d="M16.3 18.7231C16.3 18.7231 18.6625 18.4 20.5 22.6C20.5 22.6 25.8118 12.1 31 10" stroke="#A0A0A0" stroke-width="1.5" stroke-linecap="round" stroke-linejoin="round"/>
</svg>
