<svg width="51" height="51" viewBox="0 0 51 51" fill="none" xmlns="http://www.w3.org/2000/svg">
<g filter="url(#filter0_d_650_4935)">
<path d="M45.5858 25.2929C45.5858 36.5003 36.5003 45.5858 25.2929 45.5858C14.0854 45.5858 5 36.5003 5 25.2929C5 14.0854 14.0854 5 25.2929 5C36.5003 5 45.5858 14.0854 45.5858 25.2929Z" fill="white"/>
</g>
<path fill-rule="evenodd" clip-rule="evenodd" d="M17.1448 16.2464C18.0909 15.235 19.5785 15 21.47 15H29.03C30.9215 15 32.4091 15.235 33.3552 16.2464C34.2847 17.2399 34.5 18.7865 34.5 20.79V25.05C34.5 25.4642 34.1642 25.8 33.75 25.8C33.3358 25.8 33 25.4642 33 25.05V20.79C33 18.7636 32.7453 17.7901 32.2598 17.2711C31.7909 16.77 30.9185 16.5 29.03 16.5H21.47C19.5815 16.5 18.7091 16.77 18.2402 17.2711C17.7547 17.7901 17.5 18.7636 17.5 20.79V32.05C17.5 32.6546 17.5841 33.0885 17.7003 33.3733C17.8154 33.6557 17.9382 33.7404 17.9979 33.7662C18.0522 33.7896 18.1795 33.8186 18.4313 33.7099C18.6905 33.598 19.0316 33.3577 19.4312 32.9288C19.437 32.9226 19.4429 32.9165 19.4489 32.9105L19.452 32.9074C20.5893 31.7098 22.3818 31.8078 23.3707 33.131L24.3805 34.4807C24.6287 34.8124 24.561 35.2824 24.2293 35.5305C23.8976 35.7787 23.4276 35.7109 23.1795 35.3793L22.1695 34.0293C21.7407 33.4555 21.0389 33.4106 20.5358 33.9444L20.5211 33.9595L20.5199 33.9608C20.0372 34.4771 19.5351 34.8671 19.0259 35.087C18.5062 35.3114 17.9365 35.3729 17.4046 35.1438C16.8781 34.9171 16.5252 34.4643 16.3113 33.9398C16.0984 33.4177 16 32.7754 16 32.05V20.79C16 18.7865 16.2153 17.2399 17.1448 16.2464Z" fill="#A0A0A0"/>
<path fill-rule="evenodd" clip-rule="evenodd" d="M20.5 20.75C20.5 20.3358 20.8358 20 21.25 20H29.25C29.6642 20 30 20.3358 30 20.75C30 21.1642 29.6642 21.5 29.25 21.5H21.25C20.8358 21.5 20.5 21.1642 20.5 20.75Z" fill="#A0A0A0"/>
<path fill-rule="evenodd" clip-rule="evenodd" d="M21.5 24.75C21.5 24.3358 21.8358 24 22.25 24H28.25C28.6642 24 29 24.3358 29 24.75C29 25.1642 28.6642 25.5 28.25 25.5H22.25C21.8358 25.5 21.5 25.1642 21.5 24.75Z" fill="#A0A0A0"/>
<path fill-rule="evenodd" clip-rule="evenodd" d="M32.3844 27.2069C33.0476 27.1387 33.6579 27.4366 34.2014 27.9801C34.7479 28.5267 35.0494 29.1383 34.9836 29.8031C34.9218 30.4282 34.549 30.9132 34.2014 31.2608L30.669 34.7932C30.5224 34.9468 30.3421 35.0584 30.194 35.1325C30.0381 35.2104 29.8487 35.2812 29.658 35.3113L29.6456 35.3132L28.2971 35.5029C28.2968 35.503 28.2974 35.5029 28.2971 35.5029C27.8556 35.5657 27.3996 35.4497 27.0707 35.1208C26.7418 34.7919 26.6256 34.3368 26.6884 33.8952C26.6885 33.8949 26.6884 33.8955 26.6884 33.8952L26.8801 32.5335C26.9107 32.3397 26.983 32.1515 27.0605 31.9981C27.1381 31.8448 27.2484 31.6724 27.3907 31.5301C27.3907 31.5301 27.3907 31.5301 27.3907 31.5301L30.9307 27.9901C31.2783 27.6424 31.7623 27.2708 32.3844 27.2069ZM32.5377 28.699C32.4298 28.7101 32.2537 28.7884 31.9913 29.0508L28.4527 32.5894C28.4522 32.5901 28.4466 32.5964 28.4373 32.61C28.4254 32.6272 28.412 32.6496 28.399 32.6753C28.386 32.7009 28.3759 32.7251 28.369 32.7449C28.3646 32.7573 28.3626 32.7651 28.3618 32.7681L28.188 34.0035L29.424 33.8295C29.4272 33.8288 29.4364 33.8265 29.4511 33.8214C29.4725 33.814 29.4976 33.8036 29.5231 33.7909C29.5488 33.778 29.5692 33.7657 29.5828 33.7562C29.586 33.754 29.5884 33.7522 29.59 33.751C29.5936 33.7473 29.5971 33.7437 29.6007 33.7401L33.1407 30.2001C33.4031 29.9378 33.4803 29.7627 33.4909 29.6553C33.4976 29.5876 33.4941 29.3942 33.1407 29.0408C32.7942 28.6943 32.6045 28.6922 32.5377 28.699Z" fill="#A0A0A0"/>
<path fill-rule="evenodd" clip-rule="evenodd" d="M30.7485 28.3078C31.1476 28.197 31.561 28.4306 31.6719 28.8297C31.9015 29.6563 32.5434 30.2982 33.37 30.5278C33.7691 30.6387 34.0027 31.0521 33.8919 31.4512C33.781 31.8503 33.3676 32.084 32.9685 31.9731C31.635 31.6027 30.597 30.5647 30.2266 29.2312C30.1157 28.8321 30.3494 28.4187 30.7485 28.3078Z" fill="#A0A0A0"/>
<defs>
<filter id="filter0_d_650_4935" x="0" y="0" width="50.5858" height="50.5859" filterUnits="userSpaceOnUse" color-interpolation-filters="sRGB">
<feFlood flood-opacity="0" result="BackgroundImageFix"/>
<feColorMatrix in="SourceAlpha" type="matrix" values="0 0 0 0 0 0 0 0 0 0 0 0 0 0 0 0 0 0 127 0" result="hardAlpha"/>
<feOffset/>
<feGaussianBlur stdDeviation="2.5"/>
<feComposite in2="hardAlpha" operator="out"/>
<feColorMatrix type="matrix" values="0 0 0 0 0 0 0 0 0 0 0 0 0 0 0 0 0 0 0.1 0"/>
<feBlend mode="normal" in2="BackgroundImageFix" result="effect1_dropShadow_650_4935"/>
<feBlend mode="normal" in="SourceGraphic" in2="effect1_dropShadow_650_4935" result="shape"/>
</filter>
</defs>
</svg>
