<svg width="512" height="512" viewBox="0 0 512 512" fill="none" xmlns="http://www.w3.org/2000/svg">
<rect width="512" height="512" rx="112" fill="white"/>
<g clip-path="url(#clip0_778_4891)">
<path d="M297.057 66.507C284.042 62.3662 269.845 60 255.352 60C213.648 60 176.085 78.9296 150.944 108.803L215.423 162.93L297.057 66.507Z" fill="#1A73E8"/>
<path d="M150.944 108.803C131.127 132.465 119 163.225 119 196.352C119 222.085 124.028 242.789 132.606 261.423L215.423 162.93L150.944 108.803Z" fill="#EA4335"/>
<path d="M255.648 144.296C284.634 144.296 308 167.662 308 196.648C308 209.366 303.267 221.197 295.577 230.366C295.577 230.366 336.69 181.268 376.915 133.648C360.352 101.704 331.662 77.4507 297.056 66.5071L215.422 162.93C225.183 151.69 239.38 144.296 255.648 144.296Z" fill="#4285F4"/>
<path d="M255.648 248.704C226.662 248.704 203.296 225.338 203.296 196.352C203.296 183.634 207.732 171.803 215.422 162.93L132.605 261.423C146.803 292.775 170.465 318.211 194.718 349.859L295.577 230.07C285.817 241.606 271.62 248.704 255.648 248.704Z" fill="#FBBC04"/>
<path d="M293.803 382.986C339.352 311.704 392.296 279.465 392.296 196.648C392.296 173.873 386.676 152.577 376.915 133.648L194.718 349.859C202.408 359.915 210.394 371.451 218.084 383.282C245.887 426.169 238.197 451.606 255.944 451.606C273.69 451.606 266 425.873 293.803 382.986Z" fill="#34A853"/>
</g>
<defs>
<clipPath id="clip0_778_4891">
<rect x="119" y="60" width="273" height="391.31" rx="112" fill="white"/>
</clipPath>
</defs>
</svg>
