<svg width="22" height="22" viewBox="0 0 22 22" fill="none" xmlns="http://www.w3.org/2000/svg">
<path d="M21 9.78695V14.6C21 16.8402 21 17.9603 20.564 18.816C20.1805 19.5686 19.5686 20.1805 18.816 20.564C17.9603 21 16.8402 21 14.6 21H13.7778V16.9357C13.7778 15.4015 12.5341 14.1579 11 14.1579C9.46589 14.1579 8.22223 15.4015 8.22223 16.9357V21L7.40003 21C5.15982 21 4.03971 21 3.18406 20.564C2.43141 20.1805 1.81948 19.5686 1.43599 18.816C1.00001 17.9603 1.00001 16.8402 1.00001 14.6L1 9.78697L1 9.78694C1 8.3187 1 7.58457 1.22702 6.93978C1.42774 6.36969 1.75504 5.85249 2.18433 5.42705C2.66987 4.94585 3.33334 4.63158 4.66026 4.00304L8.2603 2.29777L8.26031 2.29777C9.26696 1.82093 9.77029 1.58251 10.2959 1.48852C10.7617 1.40524 11.2385 1.40524 11.7042 1.48852C12.2298 1.58252 12.7331 1.82094 13.7398 2.29778L17.3398 4.00303C18.6667 4.63158 19.3301 4.94585 19.8157 5.42704C20.245 5.85249 20.5723 6.36968 20.773 6.93977C21 7.58457 21 8.3187 21 9.78695Z" stroke="currentColor" stroke-width="1.5" stroke-linecap="round"/>
</svg>
