<svg width="20" height="24" viewBox="0 0 20 24" fill="none" xmlns="http://www.w3.org/2000/svg">
<path d="M11.6167 22.3037C11.183 22.7503 10.6034 23 10.0002 23C9.39699 23 8.81738 22.7503 8.38373 22.3037C4.41267 18.1886 -0.909042 13.5916 1.6862 6.91763C3.08942 3.30907 6.45779 1 10.0002 1C13.5426 1 16.911 3.30907 18.3142 6.91763C20.9062 13.5832 15.5975 18.2028 11.6167 22.3037Z" stroke="currentColor" stroke-width="1.5"/>
<path d="M13.5 11C13.5 12.933 11.933 14.5 10 14.5C8.067 14.5 6.5 12.933 6.5 11C6.5 9.067 8.067 7.5 10 7.5C11.933 7.5 13.5 9.067 13.5 11Z" stroke="currentColor" stroke-width="1.5"/>
</svg>
