<svg width="16" height="22" viewBox="0 0 16 22" fill="none" xmlns="http://www.w3.org/2000/svg">
<path d="M12.2009 9C12.2009 9 12.0009 10 9.00089 14C6.10089 17.8 10.3009 20.6 10.8009 21H10.9009C11.5009 20.5 19.1009 15.7 12.2009 9Z" stroke="currentColor" stroke-width="1.5" stroke-miterlimit="10" stroke-linecap="round" stroke-linejoin="round"/>
<path d="M9.80078 6.79982C9.80078 4.49982 8.90078 2.39982 8.00078 1.19982C7.70078 0.899824 7.20078 0.999824 7.10078 1.39982C6.70078 2.89982 5.50078 6.09982 2.60078 9.89982C-1.09922 14.6998 2.30078 19.8998 5.80078 20.8998C7.70078 21.3998 5.30078 19.8998 5.00078 16.7998C4.70078 12.8998 9.80078 9.99982 9.80078 6.79982Z" stroke="currentColor" stroke-width="1.5" stroke-miterlimit="10" stroke-linecap="round" stroke-linejoin="round"/>
</svg>
