<svg width="17" height="16" viewBox="0 0 17 16" fill="none" xmlns="http://www.w3.org/2000/svg">
<path fill-rule="evenodd" clip-rule="evenodd" d="M9.08408 2.64294C9.08408 2.27814 8.78836 1.98242 8.42357 1.98242C8.05878 1.98242 7.76306 2.27814 7.76306 2.64294V7.26653H3.13946C2.77466 7.26653 2.47894 7.56226 2.47894 7.92705C2.47894 8.29184 2.77466 8.58756 3.13946 8.58756H7.76306V13.2112C7.76306 13.576 8.05878 13.8717 8.42357 13.8717C8.78836 13.8717 9.08408 13.576 9.08408 13.2112V8.58756H13.7077C14.0725 8.58756 14.3682 8.29184 14.3682 7.92705C14.3682 7.56226 14.0725 7.26653 13.7077 7.26653H9.08408V2.64294Z" fill="white"/>
</svg>
