<svg width="25" height="24" viewBox="0 0 25 24" fill="none" xmlns="http://www.w3.org/2000/svg">
<ellipse cx="12.3505" cy="12" rx="11.7795" ry="12" fill="black"/>
<path fill-rule="evenodd" clip-rule="evenodd" d="M13.0841 6.64294C13.0841 6.27814 12.7884 5.98242 12.4236 5.98242C12.0588 5.98242 11.7631 6.27814 11.7631 6.64294V11.2665H7.13946C6.77466 11.2665 6.47894 11.5623 6.47894 11.927C6.47894 12.2918 6.77466 12.5876 7.13946 12.5876H11.7631V17.2112C11.7631 17.576 12.0588 17.8717 12.4236 17.8717C12.7884 17.8717 13.0841 17.576 13.0841 17.2112V12.5876H17.7077C18.0725 12.5876 18.3682 12.2918 18.3682 11.927C18.3682 11.5623 18.0725 11.2665 17.7077 11.2665H13.0841V6.64294Z" fill="white"/>
</svg>
