<svg width="41" height="41" viewBox="0 0 41 41" fill="none" xmlns="http://www.w3.org/2000/svg">
<path d="M40.5858 20.2929C40.5858 31.5003 31.5003 40.5858 20.2929 40.5858C9.08543 40.5858 0 31.5003 0 20.2929C0 9.08543 9.08543 0 20.2929 0C31.5003 0 40.5858 9.08543 40.5858 20.2929Z" fill="white"/>
<path d="M11.1699 15.4399L19.9999 20.5499L28.7699 15.4699" stroke="#A0A0A0" stroke-width="1.5" stroke-linecap="round" stroke-linejoin="round"/>
<path d="M19.9999 29.61V20.54" stroke="#A0A0A0" stroke-width="1.5" stroke-linecap="round" stroke-linejoin="round"/>
<path d="M17.9306 10.48L12.5906 13.45C11.3806 14.12 10.3906 15.8 10.3906 17.18V22.83C10.3906 24.21 11.3806 25.89 12.5906 26.56L17.9306 29.53C19.0706 30.16 20.9406 30.16 22.0806 29.53L27.4206 26.56C28.6306 25.89 29.6206 24.21 29.6206 22.83V17.18C29.6206 15.8 28.6306 14.12 27.4206 13.45L22.0806 10.48C20.9306 9.84 19.0706 9.84 17.9306 10.48Z" stroke="#A0A0A0" stroke-width="1.5" stroke-linecap="round" stroke-linejoin="round"/>
<path d="M24.9998 21.2401V17.5801L15.5098 12.1001" stroke="#A0A0A0" stroke-width="1.5" stroke-linecap="round" stroke-linejoin="round"/>
</svg>
