<svg width="25" height="25" viewBox="0 0 25 25" fill="none" xmlns="http://www.w3.org/2000/svg">
<g clip-path="url(#clip0_3506_8737)">
<path d="M0.43457 12.1405C0.43457 5.48258 5.83268 0.0844727 12.4906 0.0844727C19.1486 0.0844727 24.5467 5.48258 24.5467 12.1405C24.5467 18.7985 19.1486 24.1966 12.4906 24.1966C5.83569 24.1886 0.442608 18.7955 0.43457 12.1416V12.1405ZM2.84579 12.1405C2.84579 17.4673 7.16387 21.7854 12.4906 21.7854C17.8174 21.7854 22.1355 17.4673 22.1355 12.1405C22.1355 6.81377 17.8174 2.49569 12.4906 2.49569C7.16688 2.50172 2.85181 6.81679 2.84579 12.1395V12.1405Z" fill="currentColor"/>
</g>
<defs>
<clipPath id="clip0_3506_8737">
<rect width="24.1121" height="24.1121" fill="currentColor" transform="translate(0.43457 0.0844727)"/>
</clipPath>
</defs>
</svg>
